<?xml version="1.0" encoding="utf-8"?>
<!-- Generator: Adobe Illustrator 14.0.0, SVG Export Plug-In  -->
<!DOCTYPE svg PUBLIC "-//W3C//DTD SVG 1.1//EN" "http://www.w3.org/Graphics/SVG/1.1/DTD/svg11.dtd" [
	<!ENTITY ns_flows "http://ns.adobe.com/Flows/1.0/">
]>
<svg version="1.1"
	 xmlns="http://www.w3.org/2000/svg" xmlns:xlink="http://www.w3.org/1999/xlink" xmlns:a="http://ns.adobe.com/AdobeSVGViewerExtensions/3.0/"
	 x="0px" y="0px" width="2000px" height="1800px" viewBox="-36.793 -34.827 2000 1800"
	 enable-background="new -36.793 -34.827 2000 1800" xml:space="preserve">
<defs>
</defs>
<path fill="#212F64" d="M1231.777,268.576c0,148.325-120.253,268.576-268.578,268.576c-148.317,0-268.56-120.251-268.56-268.576
	C694.639,120.247,814.882,0,963.199,0C1111.524,0,1231.777,120.247,1231.777,268.576z"/>
<path fill="#212F64" d="M537.145,1463.064c0,148.328-120.251,268.563-268.579,268.563C120.244,1731.628,0,1611.393,0,1463.064
	c0-148.33,120.244-268.581,268.565-268.581C416.894,1194.483,537.145,1314.734,537.145,1463.064z"/>
<path fill="#212F64" d="M1926.414,1463.064c0,148.328-120.249,268.579-268.581,268.579c-148.312,0-268.562-120.251-268.562-268.579
	c0-148.33,120.25-268.581,268.562-268.581C1806.165,1194.483,1926.414,1314.734,1926.414,1463.064z"/>
<path fill="#212F64" d="M1158.801,1031.814c0,108.025-87.564,195.591-195.587,195.591c-108.028,0-195.594-87.565-195.594-195.591
	c0-108.024,87.566-195.597,195.594-195.597C1071.237,836.218,1158.801,923.79,1158.801,1031.814z"/>
<path fill="#212F64" d="M701.012,1305.144l104.445-73.133c0,0,60.29,56.253,157.754,54.675
	c97.007-1.568,160.685-57.033,160.685-57.033l104.621,71.453C1024.431,1500.805,745.659,1369.181,701.012,1305.144z"/>
<path fill="#212F64" d="M1341.931,1046.186l-134.421-87.233c0,0-6.544-32.727-34.435-71.798
	c-34.544-48.398-76.567-72.608-76.567-72.608V677.247C1360.771,788.742,1341.931,1046.186,1341.931,1046.186z"/>
<path fill="#212F64" d="M584.492,1046.186l134.226-86.603c0,0,7.538-34.516,35.427-73.589
	c34.547-48.397,77.056-72.244,77.056-72.244l-1.289-136.503C568.252,778.647,584.492,1046.186,584.492,1046.186z"/>
<path fill="#212F64" d="M1056.092,300.776H870.328v493.621c20.222-7.705,50.725-16.87,92.883-16.87
	c42.149,0,72.294,9.173,92.881,16.87V300.776z"/>
<path fill="#212F64" d="M1681.591,1327.702l-102.157,155.159l-422.636-285.269c21.723-27.742,34.798-44.888,46.124-80.8
	c14.403-45.446,16.345-70,14.94-95.736L1681.591,1327.702z"/>
<path fill="#212F64" d="M246.141,1327.702l102.158,155.159l422.312-284.11c-21.722-27.739-34.642-42.947-47.155-80.254
	c-12.513-37.308-16.334-70.789-14.931-96.525L246.141,1327.702z"/>
</svg>
