<?xml version="1.0" encoding="utf-8"?>
<!-- Generator: Adobe Illustrator 14.0.0, SVG Export Plug-In  -->
<!DOCTYPE svg PUBLIC "-//W3C//DTD SVG 1.1//EN" "http://www.w3.org/Graphics/SVG/1.1/DTD/svg11.dtd" [
	<!ENTITY ns_flows "http://ns.adobe.com/Flows/1.0/">
]>
<svg version="1.1"
	 xmlns="http://www.w3.org/2000/svg" xmlns:xlink="http://www.w3.org/1999/xlink" xmlns:a="http://ns.adobe.com/AdobeSVGViewerExtensions/3.0/"
	 x="0px" y="0px" width="200px" height="200px" viewBox="-1.077 -1.813 200 200" enable-background="new -1.077 -1.813 200 200"
	 xml:space="preserve">
<defs>
</defs>
<path display="none" fill="#002868" d="M5.119,110.317h23.615v83.263c0,1.862,1.511,3.373,3.374,3.373H78.46
	c1.863,0,3.375-1.511,3.375-3.373v-47.338h35.488v47.338c0,1.862,1.51,3.373,3.374,3.373h46.354c1.865,0,3.373-1.511,3.373-3.373
	v-83.263h23.616c1.341,0,2.553-0.793,3.09-2.021s0.297-2.656-0.611-3.642L102.057,2.369c-1.277-1.384-3.676-1.384-4.954,0
	L2.64,104.655c-0.909,0.985-1.148,2.414-0.611,3.642S3.778,110.317,5.119,110.317z M99.581,9.629l86.752,93.941h-19.28
	c-1.864,0-3.374,1.511-3.374,3.374v83.262h-39.607v-47.338c0-1.863-1.507-3.374-3.373-3.374H78.46c-1.863,0-3.374,1.511-3.374,3.374
	v47.338H35.481v-83.262c0-1.863-1.511-3.374-3.374-3.374H12.826L99.581,9.629z"/>
<path fill="#002868" d="M99.509,47.598c-28.313,0-51.348,23.033-51.348,51.345c0,28.312,23.035,51.347,51.348,51.347
	c28.311,0,51.344-23.035,51.344-51.347C150.853,70.631,127.819,47.598,99.509,47.598z M99.509,143.566
	c-24.607,0-44.625-20.018-44.625-44.623c0-24.605,20.018-44.622,44.625-44.622c24.604,0,44.62,20.017,44.62,44.622
	C144.129,123.549,124.112,143.566,99.509,143.566z"/>
<path fill="#002868" d="M193.964,80.933l-14.479-1.514c-2.045-8.646-5.455-16.84-10.163-24.422l9.189-11.293
	c1.097-1.344,0.994-3.297-0.229-4.521l-20.004-20.001c-1.228-1.227-3.177-1.323-4.52-0.232l-11.294,9.19
	c-7.577-4.706-15.771-8.115-24.425-10.162l-1.514-14.435c-0.177-1.718-1.629-3.025-3.357-3.025H84.89
	c-1.729,0-3.181,1.307-3.358,3.025l-1.511,14.391c-8.695,2.052-16.919,5.449-24.506,10.126l-11.212-9.111
	c-1.343-1.093-3.292-0.995-4.519,0.232L19.78,39.183c-1.224,1.224-1.326,3.175-0.234,4.518l9.108,11.209
	c-4.734,7.617-8.157,15.853-10.209,24.549l-14.34,1.474c-1.722,0.177-3.03,1.628-3.03,3.359v28.28c0,1.731,1.309,3.184,3.03,3.36
	l14.297,1.475c2.048,8.682,5.477,16.934,10.212,24.589l-9.068,11.166c-1.092,1.345-0.99,3.294,0.234,4.52l20.004,20.001
	c1.227,1.226,3.176,1.324,4.519,0.235l11.172-9.075c7.683,4.721,15.929,8.135,24.582,10.175l1.472,14.339
	c0.178,1.725,1.629,3.033,3.362,3.033h28.279c1.732,0,3.183-1.309,3.361-3.033l1.474-14.383c8.667-2.041,16.9-5.453,24.54-10.169
	l11.215,9.113c1.343,1.089,3.292,0.99,4.52-0.235l20.004-20.001c1.224-1.226,1.326-3.178,0.229-4.521l-9.146-11.25
	c4.705-7.574,8.111-15.786,10.163-24.467l14.436-1.512c1.718-0.181,3.025-1.632,3.025-3.36v-28.28
	C196.989,82.563,195.682,81.113,193.964,80.933z M190.232,109.528l-13.831,1.451c-1.464,0.152-2.658,1.238-2.956,2.681
	c-1.956,9.546-5.676,18.501-11.06,26.617c-0.814,1.232-0.735,2.853,0.198,3.999l8.768,10.781l-15.694,15.696l-10.742-8.728
	c-1.147-0.93-2.751-1.011-3.988-0.202c-8.202,5.399-17.188,9.122-26.708,11.064c-1.445,0.296-2.534,1.496-2.686,2.966l-1.412,13.779
	H87.938l-1.41-13.734c-0.151-1.47-1.239-2.669-2.684-2.967c-9.5-1.939-18.502-5.665-26.763-11.069
	c-1.224-0.802-2.833-0.723-3.981,0.204l-10.695,8.687L26.71,155.058l8.686-10.698c0.93-1.143,1.009-2.758,0.198-3.989
	c-5.423-8.215-9.16-17.216-11.11-26.75c-0.293-1.447-1.494-2.533-2.962-2.685l-13.693-1.412V87.341l13.735-1.412
	c1.469-0.149,2.669-1.236,2.962-2.684c1.953-9.553,5.69-18.537,11.104-26.701c0.818-1.232,0.739-2.85-0.191-3.996L26.71,41.805
	l15.695-15.693l10.737,8.727c1.139,0.93,2.751,1.007,3.989,0.201c8.135-5.352,17.106-9.061,26.673-11.023
	c1.441-0.295,2.527-1.492,2.678-2.957l1.448-13.787h22.197l1.451,13.83c0.152,1.465,1.236,2.66,2.679,2.956
	c9.51,1.951,18.449,5.672,26.574,11.06c1.23,0.816,2.854,0.737,3.997-0.195l10.828-8.81l15.691,15.69l-8.808,10.826
	c-0.934,1.147-1.014,2.767-0.199,4c5.391,8.129,9.111,17.071,11.062,26.573c0.297,1.443,1.49,2.528,2.955,2.681l13.874,1.452
	V109.528z"/>
<path display="none" fill="#002868" d="M9.724,190.851h178.263c5.362,0,9.727-4.362,9.727-9.725V64.162
	c0-0.035-0.019-0.063-0.02-0.099V35.326c0-6.531-5.313-11.846-11.844-11.846h-25.963v-7.629c0-6.079-4.968-11.025-11.073-11.025
	c-6.078,0-11.025,4.947-11.025,11.025v7.629H59.913v-7.629c0-6.079-4.947-11.025-11.026-11.025c-6.104,0-11.07,4.947-11.07,11.025
	v7.629H11.854c-6.531,0-11.846,5.315-11.846,11.846v28.794C0.008,64.135,0,64.147,0,64.162v116.964
	C0,186.488,4.362,190.851,9.724,190.851z M190.896,181.126c0,1.603-1.306,2.906-2.909,2.906H9.724c-1.603,0-2.906-1.304-2.906-2.906
	V67.571h184.079V181.126z M144.607,15.852c0-2.32,1.888-4.208,4.207-4.208c2.347,0,4.255,1.888,4.255,4.208V26.89v10.992
	c0,2.345-1.908,4.253-4.255,4.253c-2.319,0-4.207-1.908-4.207-4.253V26.89V15.852z M44.636,15.852c0-2.32,1.906-4.208,4.251-4.208
	c2.321,0,4.208,1.888,4.208,4.208V26.89v10.992c0,2.345-1.887,4.253-4.208,4.253c-2.345,0-4.251-1.908-4.251-4.253V26.89V15.852z
	 M6.826,35.326c0-2.773,2.255-5.028,5.028-5.028h25.963v7.583c0,6.104,4.967,11.07,11.07,11.07c6.079,0,11.026-4.967,11.026-11.07
	v-7.583h77.876v7.583c0,6.104,4.947,11.07,11.025,11.07c6.105,0,11.073-4.967,11.073-11.07v-7.583h25.963
	c2.771,0,5.026,2.255,5.026,5.028v25.417H6.826V35.326z"/>
<path display="none" fill="#002868" d="M30.888,116.871h26.49c1.883,0,3.41-1.526,3.41-3.408V86.971c0-1.883-1.526-3.409-3.41-3.409
	h-26.49c-1.883,0-3.409,1.526-3.409,3.409v26.492C27.479,115.345,29.005,116.871,30.888,116.871z M34.297,90.38h19.672v19.674
	H34.297V90.38z"/>
<path display="none" fill="#002868" d="M84.604,116.871h26.492c1.884,0,3.409-1.526,3.409-3.408V86.971
	c0-1.883-1.525-3.409-3.409-3.409H84.604c-1.885,0-3.409,1.526-3.409,3.409v26.492C81.195,115.345,82.719,116.871,84.604,116.871z
	 M88.012,90.38h19.674v19.674H88.012V90.38z"/>
<path display="none" fill="#002868" d="M138.319,116.871h26.492c1.885,0,3.409-1.526,3.409-3.408V86.971
	c0-1.883-1.524-3.409-3.409-3.409h-26.492c-1.884,0-3.408,1.526-3.408,3.409v26.492
	C134.911,115.345,136.436,116.871,138.319,116.871z M141.729,90.38h19.673v19.674h-19.673V90.38z"/>
<path display="none" fill="#002868" d="M30.888,168.041h26.49c1.883,0,3.41-1.524,3.41-3.407v-26.49c0-1.884-1.526-3.408-3.41-3.408
	h-26.49c-1.883,0-3.409,1.524-3.409,3.408v26.49C27.479,166.517,29.005,168.041,30.888,168.041z M34.297,141.552h19.672v19.672
	H34.297V141.552z"/>
<path display="none" fill="#002868" d="M84.604,168.041h26.492c1.884,0,3.409-1.524,3.409-3.407v-26.49
	c0-1.884-1.525-3.408-3.409-3.408H84.604c-1.885,0-3.409,1.524-3.409,3.408v26.49C81.195,166.517,82.719,168.041,84.604,168.041z
	 M88.012,141.552h19.674v19.672H88.012V141.552z"/>
<path display="none" fill="#002868" d="M138.319,168.041h26.492c1.885,0,3.409-1.524,3.409-3.407v-26.49
	c0-1.884-1.524-3.408-3.409-3.408h-26.492c-1.884,0-3.408,1.524-3.408,3.408v26.49C134.911,166.517,136.436,168.041,138.319,168.041
	z M141.729,141.552h19.673v19.672h-19.673V141.552z"/>
<path display="none" fill="#002868" d="M33.697,173.251c0,15.018,33.617,23.122,65.246,23.122c31.61,0,65.206-8.104,65.206-23.122
	c0-11.776-19.766-18.646-40.189-21.502c28.914-35.437,43.605-64.114,43.605-85.256C167.565,29.828,136.782,0,98.943,0
	C61.083,0,30.279,29.828,30.279,66.493c0,21.188,14.706,49.869,43.641,85.256C53.479,154.61,33.697,161.478,33.697,173.251z
	 M157.38,173.251c0,6.828-22.23,16.352-58.437,16.352c-36.231,0-58.476-9.523-58.476-16.352c0-5.499,14.377-12.632,38.548-15.333
	c0.481,0.571,0.935,1.103,1.405,1.659c0.561,0.665,1.121,1.328,1.666,1.968c0.619,0.726,1.205,1.407,1.8,2.099
	c0.52,0.604,1.046,1.22,1.545,1.797c0.638,0.736,1.226,1.412,1.826,2.1c0.4,0.46,0.819,0.943,1.201,1.38
	c0.935,1.07,1.813,2.072,2.62,2.99c2.268,2.583,4.072,4.639,5.252,6.068c0.642,0.779,1.601,1.231,2.612,1.231
	c1.012,0,1.97-0.452,2.612-1.231c1.18-1.43,2.984-3.485,5.252-6.068c0.801-0.91,1.67-1.902,2.596-2.962
	c0.428-0.489,0.898-1.03,1.35-1.551c0.561-0.642,1.104-1.266,1.695-1.948c0.512-0.591,1.047-1.218,1.58-1.836
	c0.584-0.681,1.158-1.348,1.764-2.059c0.557-0.653,1.129-1.332,1.701-2.011c0.463-0.547,0.908-1.065,1.379-1.626
	C143.017,160.618,157.38,167.751,157.38,173.251z M98.943,6.771c34.106,0,61.851,26.792,61.851,59.722
	c0,20.456-15.461,49.288-45.961,85.702c-5.047,6.062-9.711,11.373-13.112,15.248c-1.021,1.165-1.954,2.224-2.777,3.171
	c-0.823-0.947-1.755-2.006-2.777-3.171c-1.357-1.548-2.959-3.377-4.664-5.339c-0.448-0.515-0.866-0.994-1.333-1.532
	c-2.207-2.554-4.612-5.371-7.114-8.377c0,0,0,0-0.001,0c-0.003-0.004-0.006-0.008-0.009-0.011
	c-30.522-36.358-45.997-65.19-45.997-85.691C37.049,33.562,64.815,6.771,98.943,6.771z"/>
<path display="none" fill="#002868" d="M126.683,59.916c0-15.306-12.453-27.759-27.759-27.759S71.166,44.609,71.166,59.916
	c0,15.306,12.453,27.758,27.758,27.758S126.683,75.221,126.683,59.916z M77.935,59.916c0-11.574,9.415-20.988,20.989-20.988
	c11.573,0,20.989,9.415,20.989,20.988s-9.416,20.989-20.989,20.989C87.35,80.904,77.935,71.489,77.935,59.916z"/>
</svg>
