<?xml version="1.0" encoding="utf-8"?>
<!-- Generator: Adobe Illustrator 14.0.0, SVG Export Plug-In . SVG Version: 6.00 Build 43363)  -->
<!DOCTYPE svg PUBLIC "-//W3C//DTD SVG 1.1//EN" "http://www.w3.org/Graphics/SVG/1.1/DTD/svg11.dtd">
<svg version="1.1" id="Layer_1" xmlns="http://www.w3.org/2000/svg" xmlns:xlink="http://www.w3.org/1999/xlink" x="0px" y="0px"
	 width="2050px" height="350px" viewBox="0 0 2050 350" enable-background="new 0 0 2050 350" xml:space="preserve">
<g>
	<path fill="#002868" d="M545.319,86h24.803v176.78h-24.803V86z M557.356,86h101.521v23.587H557.356V86z M557.356,163.205h88.147
		v23.586h-88.147V163.205z M557.356,239.193h101.521v23.587H557.356V239.193z"/>
	<path fill="#002868" d="M769.128,264.604c0,0-3.811-0.811-11.429-2.432c-7.62-1.62-14.732-4.052-21.338-7.295
		c-6.607-3.24-12.787-7.295-18.541-12.158l15.441-18.967c6.727,5.836,14.144,10.213,22.25,13.131
		c8.104,2.918,16.9,4.377,26.383,4.377c12.806,0,22.736-2.37,29.788-7.112c7.052-4.741,10.578-11.447,10.578-20.122v-0.121
		c0-6.158-1.602-11.043-4.802-14.65c-3.203-3.605-7.337-6.281-12.401-8.024c-5.067-1.742-11.611-3.344-19.636-4.803
		c-0.243-0.079-0.507-0.122-0.79-0.122c-0.285,0-0.547-0.039-0.791-0.121l-1.824-0.365c-11.835-2.024-21.459-4.315-28.876-6.869
		c-7.416-2.553-13.759-7.213-19.027-13.981c-5.27-6.767-7.903-16.393-7.903-28.876v-0.122c0-10.942,2.451-20.283,7.356-28.025
		c4.903-7.739,12.055-13.636,21.459-17.69c9.402-4.052,20.709-6.079,33.921-6.079c6.322,0,12.542,0.689,18.663,2.067
		c6.119,1.379,12.158,3.425,18.116,6.14c5.957,2.717,11.812,6.14,17.568,10.274l-14.104,19.696
		c-6.729-4.943-13.435-8.651-20.122-11.125c-6.687-2.472-13.395-3.708-20.122-3.708c-12.079,0-21.459,2.413-28.146,7.234
		c-6.688,4.824-10.031,11.653-10.031,20.487v0.122c0,6.079,1.721,10.863,5.167,14.347c3.444,3.486,7.739,6.06,12.888,7.721
		c5.146,1.662,12.298,3.385,21.459,5.167c0.323,0.082,0.627,0.143,0.912,0.183c0.283,0.042,0.587,0.103,0.912,0.182
		c0.405,0.082,0.851,0.164,1.337,0.243c0.486,0.082,0.931,0.164,1.337,0.243c10.699,2.188,19.635,4.784,26.809,7.781
		c7.173,3,13.17,7.843,17.994,14.529c4.821,6.688,7.234,15.826,7.234,27.417v0.243c0,10.781-2.553,20-7.66,27.66
		c-5.106,7.659-12.504,13.495-22.188,17.508c-9.687,4.012-21.38,6.018-35.077,6.018
		C773.384,264.604,769.128,264.604,769.128,264.604z"/>
	<path fill="#002868" d="M931.532,262.78h-24.803V86h24.803V262.78z"/>
	<path fill="#002868" d="M991.953,86h22.493l86.445,136.658l-2.918,3.161V86h24.559v176.658h-22.735l-86.202-134.591l2.917-3.161
		v137.752h-24.559V86z"/>
	<path fill="#002868" d="M362.239,86h24.803v23.587h-14.059L362.239,86z M362.239,163.205h24.803v99.576h-24.803V163.205z
		 M379.017,239.193h40c13.049,0,23.162-3.383,30.334-10.152c7.174-6.767,10.76-16.311,10.76-28.633v-52.037
		c0-12.32-3.586-21.864-10.76-28.632c-7.173-6.767-17.285-10.152-30.334-10.152h-40V86h39.271c14.183,0,26.302,2.474,36.353,7.417
		c10.049,4.945,17.709,12.158,22.979,21.642c5.268,9.483,7.903,20.912,7.903,34.286v50.091c0,13.375-2.635,24.803-7.903,34.287
		c-5.27,9.482-12.949,16.698-23.04,21.641c-10.092,4.945-22.231,7.417-36.414,7.417h-39.149V239.193z"/>
</g>
<g>
	<circle fill="#002868" cx="182.258" cy="97.721" r="33.252"/>
	<circle fill="#002868" cx="96.253" cy="245.615" r="33.253"/>
	<circle fill="#002868" cx="268.264" cy="245.615" r="33.253"/>
	<circle fill="#002868" cx="182.259" cy="192.221" r="24.217"/>
	<g>
		<path fill="#002868" d="M149.795,226.063l12.932-9.055c0,0,7.465,6.965,19.532,6.77c12.011-0.194,19.895-7.062,19.895-7.062
			l12.954,8.847C189.838,250.288,155.323,233.991,149.795,226.063z"/>
		<path fill="#002868" d="M229.149,194l-16.643-10.801c0,0-0.81-4.052-4.263-8.89c-4.277-5.992-9.48-8.99-9.48-8.99v-17
			C231.482,162.125,229.149,194,229.149,194z"/>
		<path fill="#002868" d="M135.368,194l16.619-10.723c0,0,0.933-4.273,4.386-9.111c4.277-5.992,9.541-8.945,9.541-8.945
			l-0.16-16.901C133.357,160.875,135.368,194,135.368,194z"/>
	</g>
	<path fill="#002868" d="M193.759,101.708h-23v61.117c2.503-0.954,6.28-2.089,11.5-2.089c5.219,0,8.951,1.136,11.5,2.089V101.708z"
		/>
	<path fill="#002868" d="M271.204,228.855l-12.648,19.211l-52.328-35.32c2.689-3.435,4.309-5.558,5.711-10.004
		c1.783-5.627,2.023-8.667,1.85-11.854L271.204,228.855z"/>
	<path fill="#002868" d="M93.476,228.855l12.648,19.211l52.288-35.177c-2.689-3.435-4.289-5.317-5.838-9.937
		s-2.022-8.765-1.849-11.951L93.476,228.855z"/>
</g>
<rect x="1889" y="87.825" fill="none" width="154" height="156"/>
<text transform="matrix(1 0 0 1 1889 142.3921)" fill="#002868" font-family="'HelveticaLT'" font-size="76">®</text>
<g>
	<path fill="#002868" d="M1420.871,86h21.24l65.43,177.49h-26.855l-49.193-143.188l-49.195,143.188h-26.855L1420.871,86z"/>
	<path fill="#002868" d="M1562.396,86h24.902v177.49h-24.902V86z M1574.604,86h99.488v23.682h-99.488V86z M1574.604,163.5h86.061
		v23.667h-86.061V163.5z"/>
	<path fill="#002868" d="M1729.168,86h24.902v177.49h-24.902V86z M1741.252,86h101.93v23.682h-101.93V86z M1741.252,163.515h88.502
		v23.682h-88.502V163.515z M1741.252,239.809h101.93v23.682h-101.93V239.809z"/>
	<path fill="#002868" d="M1228.129,264.604c0,0-3.812-0.811-11.43-2.432c-7.619-1.62-14.732-4.052-21.338-7.295
		c-6.606-3.24-12.786-7.295-18.541-12.158l15.441-18.967c6.727,5.836,14.144,10.213,22.25,13.131
		c8.104,2.918,16.899,4.377,26.383,4.377c12.807,0,22.736-2.37,29.787-7.112c7.053-4.741,10.578-11.447,10.578-20.122v-0.121
		c0-6.158-1.602-11.043-4.803-14.65c-3.203-3.605-7.336-6.281-12.4-8.024c-5.067-1.742-11.611-3.344-19.637-4.803
		c-0.242-0.079-0.507-0.122-0.789-0.122c-0.285,0-0.548-0.039-0.791-0.121l-1.824-0.365c-11.835-2.024-21.459-4.315-28.875-6.869
		c-7.416-2.553-13.76-7.213-19.027-13.981c-5.271-6.767-7.903-16.393-7.903-28.876v-0.122c0-10.942,2.45-20.283,7.356-28.025
		c4.902-7.739,12.055-13.636,21.459-17.69c9.401-4.052,20.709-6.079,33.921-6.079c6.322,0,12.542,0.689,18.663,2.067
		c6.119,1.379,12.158,3.425,18.115,6.14c5.957,2.717,11.813,6.14,17.568,10.274l-14.104,19.696
		c-6.729-4.943-13.434-8.651-20.121-11.125c-6.688-2.472-13.395-3.708-20.122-3.708c-12.079,0-21.46,2.413-28.146,7.234
		c-6.688,4.824-10.031,11.653-10.031,20.487v0.122c0,6.079,1.721,10.863,5.168,14.347c3.443,3.486,7.738,6.06,12.887,7.721
		c5.146,1.662,12.299,3.385,21.459,5.167c0.323,0.082,0.627,0.143,0.912,0.183c0.283,0.042,0.588,0.103,0.912,0.182
		c0.404,0.082,0.852,0.164,1.338,0.243c0.486,0.082,0.93,0.164,1.337,0.243c10.699,2.188,19.636,4.784,26.81,7.781
		c7.172,3,13.17,7.843,17.994,14.529c4.82,6.688,7.233,15.826,7.233,27.417v0.243c0,10.781-2.554,20-7.659,27.66
		c-5.107,7.659-12.504,13.495-22.189,17.508c-9.687,4.012-21.379,6.018-35.076,6.018
		C1232.384,264.604,1228.129,264.604,1228.129,264.604z"/>
</g>
</svg>
